Coordinates
version=1
nRows=34
nColumns=38
inDegrees=no

Units are S.I. units (second, meters, Newtons, ...)
If the header above contains a line with 'inDegrees', this indicates whether rotational values are in degrees (yes) or radians (no).

endheader
time	pelvis_tilt	pelvis_list	pelvis_rotation	pelvis_tx	pelvis_ty	pelvis_tz	hip_flexion_r	hip_adduction_r	hip_rotation_r	knee_angle_r	ankle_angle_r	subtalar_angle_r	mtp_angle_r	hip_flexion_l	hip_adduction_l	hip_rotation_l	knee_angle_l	ankle_angle_l	subtalar_angle_l	mtp_angle_l	lumbar_extension	lumbar_bending	lumbar_rotation	arm_flex_r	arm_add_r	arm_rot_r	elbow_flex_r	pro_sup_r	wrist_flex_r	wrist_dev_r	arm_flex_l	arm_add_l	arm_rot_l	elbow_flex_l	pro_sup_l	wrist_flex_l	wrist_dev_l
0.67	-0.259502	1.31914	-1.12222	0.801182	1.25508	0.948681	0.12646	-0.0194121	-0.242145	0.264961	-0.246459	0	0	-0.420203	-0.135396	-0.365016	0.279778	-0.0790447	0	0	-0.420646	0.0876714	-0.305019	-0.00615181	-0.49734	0.675413	0.781659	0.823505	0	0	-0.13366	-0.460395	-0.120087	1.15317	1.5708	0	0
0.68	-0.256095	1.32884	-1.12636	0.800375	1.24467	0.946318	0.120619	-0.0187726	-0.229278	0.18997	-0.243268	0	0	-0.423437	-0.13276	-0.366736	0.280552	-0.0737167	0	0	-0.410739	0.0813903	-0.303979	-0.0104373	-0.495001	0.67252	0.78099	0.825999	0	0	-0.128291	-0.460368	-0.120283	1.15829	1.5708	0	0
0.69	-0.254501	1.33913	-1.12969	0.799402	1.23417	0.943897	0.109956	-0.0169923	-0.209453	0.104296	-0.260591	0	0	-0.425733	-0.130408	-0.369126	0.282372	-0.0678129	0	0	-0.399558	0.0750892	-0.302882	-0.00983437	-0.496056	0.684671	0.780153	0.813257	0	0	-0.124465	-0.45964	-0.121491	1.16259	1.5708	0	0
0.7	-0.256634	1.35157	-1.13057	0.797928	1.22352	0.941205	0.093644	-0.0181723	-0.160958	0.00643743	-0.295043	0	0	-0.424593	-0.128851	-0.372392	0.287269	-0.0609134	0	0	-0.385513	0.0673615	-0.300877	-0.00879159	-0.495798	0.698922	0.77741	0.800471	0	0	-0.1227	-0.460616	-0.121998	1.16727	1.5708	0	0
0.71	-0.250312	1.35972	-1.13755	0.7973	1.21305	0.939023	0.0984746	-0.0214648	-0.171997	0	-0.290534	0	0	-0.42772	-0.126908	-0.37339	0.291002	-0.0582623	0	0	-0.37736	0.0622477	-0.300705	-0.00973888	-0.496184	0.703723	0.777706	0.795778	0	0	-0.120241	-0.46013	-0.122312	1.17205	1.5708	0	0
0.72	-0.249061	1.3676	-1.1378	0.796906	1.20239	0.937014	0.106954	-0.0231292	-0.194645	0	-0.257111	0	0	-0.428394	-0.127765	-0.376054	0.299311	-0.0539578	0	0	-0.371174	0.0589552	-0.293381	-0.0471124	-0.471489	0.597325	0.777119	0.901237	0	0	-0.109727	-0.459068	-0.11332	1.17462	1.5708	0	0
0.73	-0.241302	1.36967	-1.14501	0.796396	1.19197	0.93556	0.107177	-0.023108	-0.207805	0	-0.256646	0	0	-0.436237	-0.128898	-0.376029	0.303021	-0.05475	0	0	-0.366667	0.0576564	-0.3029	-0.00930085	-0.497863	0.715164	0.77798	0.782661	0	0	-0.116386	-0.455764	-0.124692	1.1789	1.5708	0	0
0.74	-0.243399	1.37237	-1.14136	0.795901	1.18129	0.934316	0.109318	-0.0213679	-0.21748	0	-0.248607	0	0	-0.441044	-0.133376	-0.377305	0.311401	-0.0556251	0	0	-0.365936	0.0579434	-0.293173	-0.0531734	-0.468562	0.586726	0.777841	0.909142	0	0	-0.103425	-0.455639	-0.110112	1.17899	1.5708	0	0
0.75	-0.242894	1.36947	-1.13915	0.795538	1.17072	0.933587	0.104947	-0.0171332	-0.221019	0	-0.255271	0	0	-0.451003	-0.140267	-0.378883	0.320086	-0.0587893	0	0	-0.366982	0.0613538	-0.304121	-0.0210342	-0.489565	0.681943	0.77782	0.816622	0	0	-0.112346	-0.451354	-0.123737	1.18456	1.5708	0	0
0.76	-0.245739	1.36638	-1.13275	0.795307	1.15994	0.933076	0.0993814	-0.0117082	-0.215934	0	-0.268568	0	0	-0.460167	-0.148256	-0.379831	0.329479	-0.0638685	0	0	-0.369757	0.0659358	-0.3067	-0.0236455	-0.48752	0.673524	0.778254	0.826747	0	0	-0.112732	-0.447686	-0.125683	1.18718	1.5708	0	0
0.77	-0.247897	1.36161	-1.12618	0.795142	1.14895	0.932834	0.0909162	-0.00503589	-0.206142	0	-0.282977	0	0	-0.47043	-0.157522	-0.381653	0.339881	-0.0745627	0	0	-0.374361	0.0716229	-0.310642	-0.0262145	-0.48542	0.664427	0.779234	0.838553	0	0	-0.115618	-0.44419	-0.12878	1.19085	1.5708	0	0
0.78	-0.251026	1.35793	-1.11849	0.795042	1.13761	0.932696	0.0867851	0.000771021	-0.202593	0.0144572	-0.285017	0	0	-0.479745	-0.165957	-0.380748	0.34915	-0.0819114	0	0	-0.376451	0.077266	-0.314242	-0.0283003	-0.484323	0.660445	0.778749	0.843178	0	0	-0.118428	-0.440496	-0.128973	1.19149	1.5708	0	0
0.79	-0.253264	1.35298	-1.11155	0.794999	1.12606	0.932802	0.082597	0.00642372	-0.20574	0.0379578	-0.289057	0	0	-0.489665	-0.174959	-0.38095	0.359761	-0.094167	0	0	-0.379918	0.0838661	-0.318422	-0.0314527	-0.482707	0.652811	0.779062	0.852415	0	0	-0.122931	-0.436198	-0.130125	1.19234	1.5708	0	0
0.8	-0.258564	1.34849	-1.10182	0.794922	1.11428	0.933076	0.0773334	0.0127276	-0.207662	0.052268	-0.3031	0	0	-0.497863	-0.184478	-0.381377	0.372195	-0.107807	0	0	-0.382255	0.0911332	-0.322252	-0.0352387	-0.48075	0.64429	0.778813	0.862642	0	0	-0.12809	-0.431282	-0.130678	1.19164	1.5708	0	0
0.81	-0.267054	1.34526	-1.08928	0.794806	1.10226	0.933417	0.0726622	0.0187455	-0.209905	0.062392	-0.315181	0	0	-0.502527	-0.195162	-0.384195	0.38957	-0.116189	0	0	-0.382047	0.0985681	-0.324971	-0.0386547	-0.480873	0.641851	0.778886	0.862715	0	0	-0.132758	-0.426343	-0.128262	1.18818	1.5708	0	0
0.82	-0.274259	1.34204	-1.07822	0.794631	1.08999	0.933889	0.0668295	0.0243265	-0.218461	0.0725277	-0.343049	0	0	-0.505667	-0.206178	-0.388366	0.409741	-0.13589	0	0	-0.381779	0.105684	-0.330089	-0.0378556	-0.482894	0.650709	0.778723	0.854396	0	0	-0.142067	-0.420455	-0.13071	1.18655	1.5708	0	0
0.83	-0.280373	1.33949	-1.06892	0.794288	1.07747	0.934403	0.058647	0.0301441	-0.228527	0.0803269	-0.368339	0	0	-0.506256	-0.216805	-0.391505	0.43362	-0.156351	0	0	-0.380309	0.111881	-0.334562	-0.0380902	-0.484456	0.658889	0.778331	0.847128	0	0	-0.152217	-0.41495	-0.132049	1.18414	1.5708	0	0
0.84	-0.285328	1.33806	-1.06213	0.793858	1.06486	0.935002	0.0534892	0.034447	-0.242728	0.0950531	-0.387311	0	0	-0.503825	-0.226392	-0.394483	0.460583	-0.184995	0	0	-0.379606	0.116748	-0.330215	-0.0672913	-0.465324	0.579046	0.777557	0.926885	0	0	-0.155412	-0.412148	-0.121896	1.17955	1.5708	0	0
0.85	-0.286036	1.33398	-1.06134	0.793284	1.05242	0.935854	0.045964	0.038904	-0.251656	0.110991	-0.403758	0	0	-0.502216	-0.236174	-0.398422	0.491906	-0.213094	0	0	-0.378591	0.121777	-0.339648	-0.0357097	-0.49005	0.684259	0.778269	0.820076	0	0	-0.173522	-0.404659	-0.132838	1.17805	1.5708	0	0
0.86	-0.290502	1.32697	-1.05589	0.792821	1.03996	0.937307	0.0148006	0.0602282	-0.226655	0.0612055	-0.439997	0	0	-0.499998	-0.24913	-0.400118	0.527268	-0.245489	0	0	-0.382377	0.129445	-0.338842	-0.0425038	-0.487924	0.672136	0.778727	0.832321	0	0	-0.180906	-0.399201	-0.130136	1.17317	1.5708	0	0
0.87	-0.298577	1.32313	-1.04923	0.791895	1.02752	0.938453	0.0110643	0.0662272	-0.235538	0.0866331	-0.423305	0	0	-0.490922	-0.261592	-0.399649	0.57013	-0.26998	0	0	-0.382818	0.134989	-0.336634	-0.0483333	-0.485617	0.662986	0.778705	0.84137	0	0	-0.189463	-0.393813	-0.128346	1.16849	1.5708	0	0
0.88	-0.274735	1.31889	-1.07504	0.790015	1.01587	0.941266	0.00369893	0.065623	-0.24358	0.113664	-0.402433	0	0	-0.500307	-0.224056	-0.277192	0.549381	-0.274104	0	0	-0.389343	0.131446	-0.333619	-0.0492416	-0.47302	0.653249	0.765514	0.853219	0	0	-0.192625	-0.392816	-0.123278	1.15781	1.5708	0	0
0.89	-0.289595	1.31396	-1.06274	0.7887	1.00392	0.942586	-0.00412353	0.0745927	-0.246889	0.129269	-0.403163	0	0	-0.482834	-0.236641	-0.268188	0.606078	-0.290596	0	0	-0.391062	0.13834	-0.330595	-0.0493798	-0.473543	0.657588	0.766223	0.847436	0	0	-0.201666	-0.387801	-0.123092	1.15351	1.5708	0	0
0.9	-0.30669	1.31019	-1.0489	0.787313	0.992153	0.943644	-0.0102238	0.0830104	-0.255245	0.148159	-0.383259	0	0	-0.460365	-0.24947	-0.258779	0.667726	-0.313334	0	0	-0.391478	0.144893	-0.326984	-0.0487902	-0.475341	0.664872	0.767961	0.838668	0	0	-0.210916	-0.382619	-0.123333	1.14976	1.5708	0	0
0.91	-0.322966	1.30675	-1.03612	0.785924	0.980615	0.94451	-0.0191629	0.0914329	-0.262618	0.161076	-0.364164	0	0	-0.434967	-0.262232	-0.249668	0.732835	-0.334242	0	0	-0.391978	0.150962	-0.323119	-0.0485208	-0.477565	0.671127	0.771035	0.829917	0	0	-0.220043	-0.377526	-0.123821	1.14702	1.5708	0	0
0.92	-0.336271	1.30364	-1.02614	0.784551	0.969287	0.945223	-0.0302964	0.099095	-0.269191	0.169263	-0.346992	0	0	-0.407635	-0.274298	-0.240993	0.800413	-0.346171	0	0	-0.392535	0.155876	-0.319775	-0.0484263	-0.479764	0.67658	0.774906	0.821126	0	0	-0.229388	-0.373176	-0.124164	1.14518	1.5708	0	0
0.93	-0.347743	1.30348	-1.01815	0.783216	0.958039	0.945669	-0.0321566	0.100917	-0.288692	0.19499	-0.312835	0	0	-0.376399	-0.284295	-0.233243	0.869848	-0.346102	0	0	-0.392351	0.158172	-0.306861	-0.0849408	-0.45549	0.570998	0.777929	0.922131	0	0	-0.229973	-0.373382	-0.1102	1.14138	1.5708	0	0
0.94	-0.350763	1.30021	-1.0184	0.781931	0.947265	0.946344	-0.0397805	0.103608	-0.30212	0.212341	-0.294362	0	0	-0.34863	-0.293824	-0.226967	0.93854	-0.338419	0	0	-0.392492	0.159916	-0.313609	-0.044378	-0.485382	0.697573	0.781557	0.790349	0	0	-0.247952	-0.367064	-0.122406	1.14207	1.5708	0	0
0.95	-0.352164	1.29781	-1.02022	0.780673	0.936586	0.947246	-0.0532155	0.108865	-0.303028	0.213013	-0.28694	0	0	-0.319847	-0.302051	-0.2218	1.0037	-0.338803	0	0	-0.395065	0.160506	-0.309469	-0.046722	-0.483231	0.690621	0.783332	0.794027	0	0	-0.255253	-0.363492	-0.122481	1.14021	1.5708	0	0
0.96	-0.380202	1.28951	-0.999356	0.779814	0.924789	0.94694	-0.075802	0.125869	-0.298445	0.20149	-0.278703	0	0	-0.29249	-0.377413	-0.344631	1.09497	-0.378382	0	0	-0.397447	0.170526	-0.300808	-0.057558	-0.491948	0.676487	0.802714	0.801318	0	0	-0.268915	-0.355733	-0.125897	1.14646	1.5708	0	0
0.97	-0.344707	1.29723	-1.03362	0.778303	0.915487	0.949437	-0.0881766	0.117991	-0.296047	0.194849	-0.275083	0	0	-0.259707	-0.309834	-0.210165	1.11967	-0.31242	0	0	-0.39701	0.156146	-0.304477	-0.0439851	-0.477907	0.692133	0.778935	0.790507	0	0	-0.268272	-0.35563	-0.124119	1.13276	1.5708	0	0
0.98	-0.363706	1.29057	-1.02224	0.777419	0.904091	0.949564	-0.108089	0.13012	-0.29402	0.187953	-0.268372	0	0	-0.234819	-0.378991	-0.325212	1.19245	-0.316291	0	0	-0.399417	0.162305	-0.297772	-0.0459058	-0.487742	0.697477	0.793127	0.781103	0	0	-0.281188	-0.34733	-0.129888	1.13691	1.5708	0	0
0.99	-0.350108	1.29108	-1.03854	0.776327	0.894147	0.951046	-0.124472	0.13054	-0.290903	0.181564	-0.263374	0	0	-0.206368	-0.375964	-0.315104	1.23262	-0.277136	0	0	-0.401572	0.156659	-0.29498	-0.0411115	-0.484819	0.705604	0.788018	0.77163	0	0	-0.28521	-0.345779	-0.127487	1.13085	1.5708	0	0
1	-0.31244	1.30149	-1.0733	0.775193	0.885455	0.953318	-0.13272	0.120101	-0.289218	0.176853	-0.25915	0	0	-0.168163	-0.303952	-0.191628	1.24959	-0.201356	0	0	-0.398808	0.140748	-0.299135	-0.028719	-0.468827	0.7173	0.762045	0.765208	0	0	-0.282213	-0.348119	-0.121383	1.11578	1.5708	0	0
